{"glyphs":{"0":{"ha":935,"x_min":0,"x_max":0,"o":"m 865 397 b 467 0 865 178 686 0 b 69 397 247 0 69 178 l 69 575 b 467 972 69 794 247 972 b 865 575 686 972 865 794 l 865 397 m 158 397 b 467 89 158 228 297 89 b 776 397 638 89 776 228 l 776 575 b 467 883 776 744 638 883 b 158 575 297 883 158 744 l 158 397 "},"1":{"ha":228,"x_min":0,"x_max":0,"o":"m 69 972 l 158 972 l 158 0 l 69 0 "},"2":{"ha":940,"x_min":0,"x_max":0,"o":"m 76 0 l 76 113 l 615 450 b 783 663 747 526 783 572 b 558 883 783 785 682 883 l 385 883 b 158 663 258 883 158 786 l 158 618 l 69 618 l 69 663 b 385 972 69 836 208 972 l 558 972 b 871 663 731 972 871 833 b 660 374 871 522 797 453 l 203 89 l 871 89 l 871 0 "},"3":{"ha":935,"x_min":0,"x_max":0,"o":"m 746 486 b 865 265 818 439 865 357 b 600 0 865 119 746 0 l 335 0 b 69 265 189 0 69 119 l 69 310 l 158 310 l 158 265 b 335 89 158 168 238 89 l 600 89 b 776 265 697 89 776 168 b 600 442 776 363 697 442 l 290 442 l 290 531 l 600 531 b 776 707 697 531 776 610 b 600 883 776 804 697 883 l 335 883 b 158 707 238 883 158 804 l 158 663 l 69 663 l 69 707 b 335 972 69 853 189 972 l 600 972 b 865 707 746 972 865 853 b 746 486 865 615 818 533 "},"4":{"ha":957,"x_min":0,"x_max":0,"o":"m 688 0 l 688 288 l 69 288 l 69 394 l 671 972 l 776 972 l 776 375 l 888 375 l 888 288 l 776 288 l 776 0 m 688 375 l 688 867 l 178 375 "},"5":{"ha":935,"x_min":0,"x_max":0,"o":"m 600 531 b 865 265 746 531 865 411 b 600 0 865 119 746 0 l 69 0 l 69 89 l 600 89 b 776 265 697 89 776 168 b 600 442 776 363 697 442 l 335 442 b 158 265 238 442 158 363 l 158 221 l 69 221 l 69 972 l 821 972 l 821 883 l 158 883 l 158 461 b 335 531 206 504 267 531 l 600 531 "},"6":{"ha":935,"x_min":0,"x_max":0,"o":"m 776 707 b 600 883 776 804 697 883 l 335 883 b 158 707 238 883 158 804 l 158 461 b 335 531 206 504 267 531 l 600 531 b 865 265 746 531 865 411 b 600 0 865 119 746 0 l 331 0 b 69 221 199 0 69 90 l 69 707 b 335 972 69 853 189 972 l 600 972 b 865 707 746 972 865 853 l 865 663 l 776 663 l 776 707 m 158 265 b 335 89 158 168 238 89 l 600 89 b 776 265 697 89 776 168 b 600 442 776 363 697 442 l 335 442 b 158 265 238 442 158 363 "},"7":{"ha":935,"x_min":0,"x_max":0,"o":"m 158 0 l 158 81 l 750 883 l 69 883 l 69 972 l 865 972 l 865 892 l 246 51 l 246 0 "},"8":{"ha":935,"x_min":0,"x_max":0,"o":"m 746 486 b 865 265 818 439 865 357 b 600 0 865 119 746 0 l 335 0 b 69 265 189 0 69 119 b 189 486 69 357 117 439 b 69 707 117 533 69 615 b 335 972 69 853 189 972 l 600 972 b 865 707 746 972 865 853 b 746 486 865 615 818 533 m 158 265 b 335 89 158 168 238 89 l 600 89 b 776 265 697 89 776 168 b 600 442 776 363 697 442 l 335 442 b 158 265 238 442 158 363 m 158 707 b 335 531 158 610 238 531 l 600 531 b 776 707 697 531 776 610 b 600 883 776 804 697 883 l 335 883 b 158 707 238 883 158 804 "},"9":{"ha":935,"x_min":0,"x_max":0,"o":"m 781 514 l 290 44 l 290 0 l 201 0 l 201 85 l 576 442 l 335 442 b 69 707 189 442 69 561 b 335 972 69 853 189 972 l 600 972 b 865 707 746 972 865 853 b 799 533 865 640 839 581 l 800 533 l 790 524 m 158 707 b 335 531 158 610 238 531 l 600 531 b 717 575 644 531 685 547 l 729 588 b 776 707 758 618 776 661 b 600 883 776 804 697 883 l 335 883 b 158 707 238 883 158 804 "},"\u0000":{"ha":0,"x_min":0,"x_max":0,"o":""}," ":{"ha":431,"x_min":0,"x_max":0,"o":""},"\n":{"ha":0,"x_min":0,"x_max":0,"o":""},"\r":{"ha":0,"x_min":0,"x_max":0,"o":""},"+":{"ha":890,"x_min":0,"x_max":0,"o":"m 489 332 l 489 0 l 401 0 l 401 332 l 69 332 l 69 419 l 401 419 l 401 751 l 489 751 l 489 419 l 821 419 l 821 332 "},"-":{"ha":890,"x_min":0,"x_max":0,"o":"m 69 419 l 821 419 l 821 332 l 69 332 "},".":{"ha":256,"x_min":0,"x_max":0,"o":"m 69 128 l 186 128 l 186 0 l 69 0 "},"A":{"ha":1000,"x_min":0,"x_max":0,"o":"m 931 0 l 843 0 l 843 57 l 731 332 l 278 332 l 158 57 l 158 0 l 69 0 l 69 75 l 460 972 l 563 972 l 931 75 m 694 419 l 511 867 l 315 419 "},"a":{"ha":1000,"x_min":0,"x_max":0,"o":"m 931 75 l 563 972 l 460 972 l 69 75 l 69 0 l 158 0 l 158 57 l 278 332 l 731 332 l 843 57 l 843 0 l 931 0 m 315 419 l 511 867 l 694 419 "},"B":{"ha":890,"x_min":0,"x_max":0,"o":"m 701 486 b 821 265 774 439 821 357 b 556 0 821 119 701 0 l 69 0 l 69 972 l 556 972 b 821 707 701 972 821 853 b 701 486 821 615 774 533 m 556 89 b 732 265 653 89 732 168 b 556 442 732 363 653 442 l 158 442 l 158 89 m 556 531 b 732 707 653 531 732 610 b 556 883 732 804 653 883 l 158 883 l 158 531 "},"b":{"ha":890,"x_min":0,"x_max":0,"o":"m 701 486 b 821 707 774 533 821 615 b 556 972 821 853 701 972 l 69 972 l 69 0 l 556 0 b 821 265 701 0 821 119 b 701 486 821 357 774 439 m 158 89 l 158 442 l 556 442 b 732 265 653 442 732 363 b 556 89 732 168 653 89 m 158 531 l 158 883 l 556 883 b 732 707 653 883 732 804 b 556 531 732 610 653 531 "},"C":{"ha":893,"x_min":0,"x_max":0,"o":"m 824 300 l 814 257 b 500 0 785 108 653 0 l 390 0 b 69 321 214 0 69 144 l 69 651 b 390 972 69 829 214 972 l 500 972 b 735 869 589 972 675 935 b 814 715 775 826 803 774 l 824 672 l 736 656 l 728 699 b 671 810 719 740 700 778 b 500 883 626 857 565 883 l 390 883 b 158 651 263 883 158 779 l 158 321 b 390 89 158 193 263 89 l 500 89 b 728 274 610 89 706 167 l 736 317 "},"c":{"ha":893,"x_min":0,"x_max":0,"o":"m 736 317 l 728 274 b 500 89 706 167 610 89 l 390 89 b 158 321 263 89 158 193 l 158 651 b 390 883 158 779 263 883 l 500 883 b 671 810 565 883 626 857 b 728 699 700 778 719 740 l 736 656 l 824 672 l 814 715 b 735 869 803 774 775 826 b 500 972 675 935 589 972 l 390 972 b 69 651 214 972 69 829 l 69 321 b 390 0 69 144 214 0 l 500 0 b 814 257 653 0 785 108 l 824 300 "},"Ç":{"ha":893,"x_min":0,"x_max":0,"o":"m 824 300 l 814 257 b 500 0 785 108 653 0 l 390 0 b 69 321 214 0 69 144 l 69 651 b 390 972 69 829 214 972 l 500 972 b 735 869 589 972 675 935 b 814 715 775 826 803 774 l 824 672 l 736 656 l 728 699 b 671 810 719 740 700 778 b 500 883 626 857 565 883 l 390 883 b 158 651 263 883 158 779 l 158 321 b 390 89 158 193 263 89 l 500 89 b 728 274 610 89 706 167 l 736 317 "},"ç":{"ha":893,"x_min":0,"x_max":0,"o":"m 736 317 l 728 274 b 500 89 706 167 610 89 l 390 89 b 158 321 263 89 158 193 l 158 651 b 390 883 158 779 263 883 l 500 883 b 671 810 565 883 626 857 b 728 699 700 778 719 740 l 736 656 l 824 672 l 814 715 b 735 869 803 774 775 826 b 500 972 675 935 589 972 l 390 972 b 69 651 214 972 69 829 l 69 321 b 390 0 69 144 214 0 l 500 0 b 814 257 653 0 785 108 l 824 300 "},"D":{"ha":890,"x_min":0,"x_max":0,"o":"m 500 972 b 821 651 676 972 821 829 l 821 321 b 500 0 821 144 676 0 l 69 0 l 69 972 l 500 972 m 500 89 b 732 321 628 89 732 193 l 732 651 b 500 883 732 779 628 883 l 158 883 l 158 89 "},"d":{"ha":890,"x_min":0,"x_max":0,"o":"m 500 972 l 69 972 l 69 0 l 500 0 b 821 321 676 0 821 144 l 821 651 b 500 972 821 829 676 972 m 158 89 l 158 883 l 500 883 b 732 651 628 883 732 779 l 732 321 b 500 89 732 193 628 89 "},"E":{"ha":824,"x_min":0,"x_max":0,"o":"m 158 531 l 667 531 l 667 442 l 158 442 l 158 89 l 754 89 l 754 0 l 69 0 l 69 972 l 754 972 l 754 883 l 158 883 "},"e":{"ha":824,"x_min":0,"x_max":0,"o":"m 158 883 l 754 883 l 754 972 l 69 972 l 69 0 l 754 0 l 754 89 l 158 89 l 158 442 l 667 442 l 667 531 l 158 531 "},"È":{"ha":824,"x_min":0,"x_max":0,"o":"m 158 531 l 667 531 l 667 442 l 158 442 l 158 89 l 754 89 l 754 0 l 69 0 l 69 972 l 754 972 l 754 883 l 158 883 "},"É":{"ha":824,"x_min":0,"x_max":0,"o":"m 158 883 l 754 883 l 754 972 l 69 972 l 69 0 l 754 0 l 754 89 l 158 89 l 158 442 l 667 442 l 667 531 l 158 531 "},"Ê":{"ha":824,"x_min":0,"x_max":0,"o":"m 158 531 l 667 531 l 667 442 l 158 442 l 158 89 l 754 89 l 754 0 l 69 0 l 69 972 l 754 972 l 754 883 l 158 883 "},"Ë":{"ha":824,"x_min":0,"x_max":0,"o":"m 158 883 l 754 883 l 754 972 l 69 972 l 69 0 l 754 0 l 754 89 l 158 89 l 158 442 l 667 442 l 667 531 l 158 531 "},"è":{"ha":824,"x_min":0,"x_max":0,"o":"m 158 531 l 667 531 l 667 442 l 158 442 l 158 89 l 754 89 l 754 0 l 69 0 l 69 972 l 754 972 l 754 883 l 158 883 "},"é":{"ha":824,"x_min":0,"x_max":0,"o":"m 158 883 l 754 883 l 754 972 l 69 972 l 69 0 l 754 0 l 754 89 l 158 89 l 158 442 l 667 442 l 667 531 l 158 531 "},"ê":{"ha":824,"x_min":0,"x_max":0,"o":"m 158 531 l 667 531 l 667 442 l 158 442 l 158 89 l 754 89 l 754 0 l 69 0 l 69 972 l 754 972 l 754 883 l 158 883 "},"ë":{"ha":824,"x_min":0,"x_max":0,"o":"m 158 883 l 754 883 l 754 972 l 69 972 l 69 0 l 754 0 l 754 89 l 158 89 l 158 442 l 667 442 l 667 531 l 158 531 "},"F":{"ha":824,"x_min":0,"x_max":0,"o":"m 158 531 l 667 531 l 667 442 l 158 442 l 158 0 l 69 0 l 69 972 l 754 972 l 754 883 l 158 883 "},"f":{"ha":824,"x_min":0,"x_max":0,"o":"m 158 883 l 754 883 l 754 972 l 69 972 l 69 0 l 158 0 l 158 442 l 667 442 l 667 531 l 158 531 "},"G":{"ha":926,"x_min":0,"x_max":0,"o":"m 854 531 l 854 0 l 765 0 l 765 101 b 533 0 707 39 625 0 l 390 0 b 69 321 214 0 69 144 l 69 651 b 390 972 69 829 214 972 l 533 972 b 768 869 622 972 708 935 b 847 715 808 826 836 774 l 857 672 l 769 656 l 761 699 b 704 810 753 740 733 778 b 533 883 660 857 597 883 l 390 883 b 158 651 263 883 158 779 l 158 321 b 390 89 158 193 263 89 l 533 89 b 765 321 661 89 765 193 l 765 442 l 435 442 l 435 531 "},"g":{"ha":926,"x_min":0,"x_max":0,"o":"m 435 531 l 435 442 l 765 442 l 765 321 b 533 89 765 193 661 89 l 390 89 b 158 321 263 89 158 193 l 158 651 b 390 883 158 779 263 883 l 533 883 b 704 810 597 883 660 857 b 761 699 733 778 753 740 l 769 656 l 857 672 l 847 715 b 768 869 836 774 808 826 b 533 972 708 935 622 972 l 390 972 b 69 651 214 972 69 829 l 69 321 b 390 0 69 144 214 0 l 533 0 b 765 101 625 0 707 39 l 765 0 l 854 0 l 854 531 "},"H":{"ha":824,"x_min":0,"x_max":0,"o":"m 754 0 l 667 0 l 667 442 l 158 442 l 158 0 l 69 0 l 69 972 l 158 972 l 158 531 l 667 531 l 667 972 l 754 972 "},"h":{"ha":824,"x_min":0,"x_max":0,"o":"m 754 972 l 667 972 l 667 531 l 158 531 l 158 972 l 69 972 l 69 0 l 158 0 l 158 442 l 667 442 l 667 0 l 754 0 "},"I":{"ha":228,"x_min":0,"x_max":0,"o":"m 69 972 l 158 972 l 158 0 l 69 0 "},"i":{"ha":228,"x_min":0,"x_max":0,"o":"m 69 0 l 158 0 l 158 972 l 69 972 "},"Ì":{"ha":228,"x_min":0,"x_max":0,"o":"m 69 972 l 158 972 l 158 0 l 69 0 "},"Í":{"ha":228,"x_min":0,"x_max":0,"o":"m 69 0 l 158 0 l 158 972 l 69 972 "},"Î":{"ha":228,"x_min":0,"x_max":0,"o":"m 69 972 l 158 972 l 158 0 l 69 0 "},"Ï":{"ha":228,"x_min":0,"x_max":0,"o":"m 69 0 l 158 0 l 158 972 l 69 972 "},"ì":{"ha":228,"x_min":0,"x_max":0,"o":"m 69 972 l 158 972 l 158 0 l 69 0 "},"í":{"ha":228,"x_min":0,"x_max":0,"o":"m 69 0 l 158 0 l 158 972 l 69 972 "},"î":{"ha":228,"x_min":0,"x_max":0,"o":"m 69 972 l 158 972 l 158 0 l 69 0 "},"ï":{"ha":228,"x_min":0,"x_max":0,"o":"m 69 0 l 158 0 l 158 972 l 69 972 "},"J":{"ha":890,"x_min":0,"x_max":0,"o":"m 821 321 b 500 0 821 144 676 0 l 390 0 b 69 321 214 0 69 144 l 69 365 l 158 365 l 158 321 b 390 89 158 193 263 89 l 500 89 b 732 321 628 89 732 193 l 732 972 l 821 972 l 821 321 "},"j":{"ha":890,"x_min":0,"x_max":0,"o":"m 821 321 l 821 972 l 732 972 l 732 321 b 500 89 732 193 628 89 l 390 89 b 158 321 263 89 158 193 l 158 365 l 69 365 l 69 321 b 390 0 69 144 214 0 l 500 0 b 821 321 676 0 821 144 "},"K":{"ha":890,"x_min":0,"x_max":0,"o":"m 732 0 l 732 47 l 263 479 l 158 399 l 158 0 l 69 0 l 69 972 l 158 972 l 158 510 l 701 928 l 701 972 l 789 972 l 789 885 l 333 533 l 821 86 l 821 0 "},"k":{"ha":890,"x_min":0,"x_max":0,"o":"m 821 0 l 821 86 l 333 533 l 789 885 l 789 972 l 701 972 l 701 928 l 158 510 l 158 972 l 69 972 l 69 0 l 158 0 l 158 399 l 263 479 l 732 47 l 732 0 "},"L":{"ha":779,"x_min":0,"x_max":0,"o":"m 710 0 l 69 0 l 69 972 l 158 972 l 158 89 l 710 89 "},"l":{"ha":779,"x_min":0,"x_max":0,"o":"m 710 89 l 158 89 l 158 972 l 69 972 l 69 0 l 710 0 "},"M":{"ha":935,"x_min":0,"x_max":0,"o":"m 865 0 l 776 0 l 776 865 l 510 354 l 425 354 l 158 865 l 158 0 l 69 0 l 69 972 l 201 972 l 467 464 l 732 972 l 865 972 "},"m":{"ha":935,"x_min":0,"x_max":0,"o":"m 865 972 l 732 972 l 467 464 l 201 972 l 69 972 l 69 0 l 158 0 l 158 865 l 425 354 l 510 354 l 776 865 l 776 0 l 865 0 "},"N":{"ha":846,"x_min":0,"x_max":0,"o":"m 776 0 l 640 0 l 158 876 l 158 0 l 69 0 l 69 972 l 206 972 l 688 96 l 688 972 l 776 972 "},"n":{"ha":846,"x_min":0,"x_max":0,"o":"m 776 972 l 688 972 l 688 96 l 206 972 l 69 972 l 69 0 l 158 0 l 158 876 l 640 0 l 776 0 "},"Ñ":{"ha":846,"x_min":0,"x_max":0,"o":"m 776 0 l 640 0 l 158 876 l 158 0 l 69 0 l 69 972 l 206 972 l 688 96 l 688 972 l 776 972 "},"ñ":{"ha":846,"x_min":0,"x_max":0,"o":"m 776 972 l 688 972 l 688 96 l 206 972 l 69 972 l 69 0 l 158 0 l 158 876 l 640 0 l 776 0 "},"O":{"ha":890,"x_min":0,"x_max":0,"o":"m 500 972 b 821 651 676 972 821 829 l 821 321 b 500 0 821 144 676 0 l 390 0 b 69 321 214 0 69 144 l 69 651 b 390 972 69 829 214 972 l 500 972 m 158 321 b 390 89 158 193 263 89 l 500 89 b 732 321 628 89 732 193 l 732 651 b 500 883 732 779 628 883 l 390 883 b 158 651 263 883 158 779 l 158 321 "},"o":{"ha":890,"x_min":0,"x_max":0,"o":"m 500 972 l 390 972 b 69 651 214 972 69 829 l 69 321 b 390 0 69 144 214 0 l 500 0 b 821 321 676 0 821 144 l 821 651 b 500 972 821 829 676 972 m 158 321 l 158 651 b 390 883 158 779 263 883 l 500 883 b 732 651 628 883 732 779 l 732 321 b 500 89 732 193 628 89 l 390 89 b 158 321 263 89 158 193 "},"P":{"ha":890,"x_min":0,"x_max":0,"o":"m 556 972 b 821 707 701 972 821 853 b 556 442 821 561 701 442 l 158 442 l 158 0 l 69 0 l 69 972 l 556 972 m 556 531 b 732 707 653 531 732 610 b 556 883 732 804 653 883 l 158 883 l 158 531 "},"p":{"ha":890,"x_min":0,"x_max":0,"o":"m 556 972 l 69 972 l 69 0 l 158 0 l 158 442 l 556 442 b 821 707 701 442 821 561 b 556 972 821 853 701 972 m 158 531 l 158 883 l 556 883 b 732 707 653 883 732 804 b 556 531 732 610 653 531 "},"Q":{"ha":890,"x_min":0,"x_max":0,"o":"m 821 321 b 763 138 821 253 799 189 l 821 86 l 821 0 l 732 0 l 732 46 l 701 74 b 500 0 646 28 576 0 l 390 0 b 69 321 214 0 69 144 l 69 651 b 390 972 69 829 214 972 l 500 972 b 821 651 676 972 821 829 l 821 321 m 158 321 b 390 89 158 193 263 89 l 500 89 b 635 132 550 89 596 104 l 556 201 l 556 288 l 644 288 l 644 240 l 696 196 b 732 321 718 232 732 275 l 732 651 b 500 883 732 779 628 883 l 390 883 b 158 651 263 883 158 779 l 158 321 "},"q":{"ha":890,"x_min":0,"x_max":0,"o":"m 821 321 l 821 651 b 500 972 821 829 676 972 l 390 972 b 69 651 214 972 69 829 l 69 321 b 390 0 69 144 214 0 l 500 0 b 701 74 576 0 646 28 l 732 46 l 732 0 l 821 0 l 821 86 l 763 138 b 821 321 799 189 821 253 m 158 321 l 158 651 b 390 883 158 779 263 883 l 500 883 b 732 651 628 883 732 779 l 732 321 b 696 196 732 275 718 232 l 644 240 l 644 288 l 556 288 l 556 201 l 635 132 b 500 89 596 104 550 89 l 390 89 b 158 321 263 89 158 193 "},"R":{"ha":890,"x_min":0,"x_max":0,"o":"m 536 442 l 799 104 l 799 0 l 710 0 l 710 74 l 424 442 l 158 442 l 158 0 l 69 0 l 69 972 l 556 972 b 821 707 701 972 821 853 b 556 442 821 561 701 442 m 556 531 b 732 707 653 531 732 610 b 556 883 732 804 653 883 l 158 883 l 158 531 "},"r":{"ha":890,"x_min":0,"x_max":0,"o":"m 556 442 b 821 707 701 442 821 561 b 556 972 821 853 701 972 l 69 972 l 69 0 l 158 0 l 158 442 l 424 442 l 710 74 l 710 0 l 799 0 l 799 104 l 536 442 m 158 531 l 158 883 l 556 883 b 732 707 653 883 732 804 b 556 531 732 610 653 531 "},"S":{"ha":890,"x_min":0,"x_max":0,"o":"m 732 663 l 732 707 b 556 883 732 804 653 883 l 335 883 b 158 707 238 883 158 804 b 169 653 158 690 163 671 b 263 581 185 619 219 592 l 643 476 b 807 335 719 456 781 403 b 821 265 815 311 821 288 b 556 0 821 119 701 0 l 335 0 b 69 265 189 0 69 119 l 69 310 l 158 310 l 158 265 b 335 89 158 168 238 89 l 556 89 b 732 265 653 89 732 168 b 725 303 732 276 729 289 b 619 392 708 344 669 378 l 239 494 b 89 617 171 514 115 558 b 69 707 76 646 69 676 b 335 972 69 853 189 972 l 556 972 b 821 707 701 972 821 853 l 821 663 "},"s":{"ha":890,"x_min":0,"x_max":0,"o":"m 821 663 l 821 707 b 556 972 821 853 701 972 l 335 972 b 69 707 189 972 69 853 b 89 617 69 676 76 646 b 239 494 115 558 171 514 l 619 392 b 725 303 669 378 708 344 b 732 265 729 289 732 276 b 556 89 732 168 653 89 l 335 89 b 158 265 238 89 158 168 l 158 310 l 69 310 l 69 265 b 335 0 69 119 189 0 l 556 0 b 821 265 701 0 821 119 b 807 335 821 288 815 311 b 643 476 781 403 719 456 l 263 581 b 169 653 219 592 185 619 b 158 707 163 671 158 690 b 335 883 158 804 238 883 l 556 883 b 732 707 653 883 732 804 l 732 663 "},"T":{"ha":849,"x_min":0,"x_max":0,"o":"m 800 883 l 468 883 l 468 0 l 381 0 l 381 883 l 49 883 l 49 972 l 800 972 "},"t":{"ha":849,"x_min":0,"x_max":0,"o":"m 800 972 l 49 972 l 49 883 l 381 883 l 381 0 l 468 0 l 468 883 l 800 883 "},"U":{"ha":890,"x_min":0,"x_max":0,"o":"m 821 321 b 500 0 821 144 676 0 l 390 0 b 69 321 214 0 69 144 l 69 972 l 158 972 l 158 321 b 390 89 158 193 263 89 l 500 89 b 732 321 628 89 732 193 l 732 972 l 821 972 l 821 321 "},"u":{"ha":890,"x_min":0,"x_max":0,"o":"m 821 321 l 821 972 l 732 972 l 732 321 b 500 89 732 193 628 89 l 390 89 b 158 321 263 89 158 193 l 158 972 l 69 972 l 69 321 b 390 0 69 144 214 0 l 500 0 b 821 321 676 0 821 144 "},"Ù":{"ha":890,"x_min":0,"x_max":0,"o":"m 821 321 b 500 0 821 144 676 0 l 390 0 b 69 321 214 0 69 144 l 69 972 l 158 972 l 158 321 b 390 89 158 193 263 89 l 500 89 b 732 321 628 89 732 193 l 732 972 l 821 972 l 821 321 "},"Ú":{"ha":890,"x_min":0,"x_max":0,"o":"m 821 321 l 821 972 l 732 972 l 732 321 b 500 89 732 193 628 89 l 390 89 b 158 321 263 89 158 193 l 158 972 l 69 972 l 69 321 b 390 0 69 144 214 0 l 500 0 b 821 321 676 0 821 144 "},"Û":{"ha":890,"x_min":0,"x_max":0,"o":"m 821 321 b 500 0 821 144 676 0 l 390 0 b 69 321 214 0 69 144 l 69 972 l 158 972 l 158 321 b 390 89 158 193 263 89 l 500 89 b 732 321 628 89 732 193 l 732 972 l 821 972 l 821 321 "},"Ü":{"ha":890,"x_min":0,"x_max":0,"o":"m 821 321 l 821 972 l 732 972 l 732 321 b 500 89 732 193 628 89 l 390 89 b 158 321 263 89 158 193 l 158 972 l 69 972 l 69 321 b 390 0 69 144 214 0 l 500 0 b 821 321 676 0 821 144 "},"ù":{"ha":890,"x_min":0,"x_max":0,"o":"m 821 321 b 500 0 821 144 676 0 l 390 0 b 69 321 214 0 69 144 l 69 972 l 158 972 l 158 321 b 390 89 158 193 263 89 l 500 89 b 732 321 628 89 732 193 l 732 972 l 821 972 l 821 321 "},"ú":{"ha":890,"x_min":0,"x_max":0,"o":"m 821 321 l 821 972 l 732 972 l 732 321 b 500 89 732 193 628 89 l 390 89 b 158 321 263 89 158 193 l 158 972 l 69 972 l 69 321 b 390 0 69 144 214 0 l 500 0 b 821 321 676 0 821 144 "},"û":{"ha":890,"x_min":0,"x_max":0,"o":"m 821 321 b 500 0 821 144 676 0 l 390 0 b 69 321 214 0 69 144 l 69 972 l 158 972 l 158 321 b 390 89 158 193 263 89 l 500 89 b 732 321 628 89 732 193 l 732 972 l 821 972 l 821 321 "},"ü":{"ha":890,"x_min":0,"x_max":0,"o":"m 821 321 l 821 972 l 732 972 l 732 321 b 500 89 732 193 628 89 l 390 89 b 158 321 263 89 158 193 l 158 972 l 69 972 l 69 321 b 390 0 69 144 214 0 l 500 0 b 821 321 676 0 821 144 "},"V":{"ha":890,"x_min":0,"x_max":0,"o":"m 818 890 l 499 0 l 386 0 l 69 906 l 69 972 l 158 972 l 158 914 l 443 106 l 732 914 l 732 972 l 821 972 "},"v":{"ha":890,"x_min":0,"x_max":0,"o":"m 821 972 l 732 972 l 732 914 l 443 106 l 158 914 l 158 972 l 69 972 l 69 906 l 386 0 l 499 0 l 818 890 "},"W":{"ha":1022,"x_min":0,"x_max":0,"o":"m 763 0 l 644 0 l 511 742 l 378 0 l 260 0 l 69 906 l 69 972 l 158 972 l 158 911 l 317 158 l 463 972 l 560 972 l 706 158 l 865 911 l 865 972 l 953 972 l 953 901 "},"w":{"ha":1022,"x_min":0,"x_max":0,"o":"m 953 901 l 953 972 l 865 972 l 865 911 l 706 158 l 560 972 l 463 972 l 317 158 l 158 911 l 158 972 l 69 972 l 69 906 l 260 0 l 378 0 l 511 742 l 644 0 l 763 0 "},"X":{"ha":890,"x_min":0,"x_max":0,"o":"m 501 486 l 821 82 l 821 0 l 732 0 l 732 51 l 444 415 l 158 51 l 158 0 l 69 0 l 69 82 l 389 486 l 69 890 l 69 972 l 158 972 l 158 921 l 444 557 l 732 921 l 732 972 l 821 972 l 821 890 "},"x":{"ha":890,"x_min":0,"x_max":0,"o":"m 821 890 l 821 972 l 732 972 l 732 921 l 444 557 l 158 921 l 158 972 l 69 972 l 69 890 l 389 486 l 69 82 l 69 0 l 158 0 l 158 51 l 444 415 l 732 51 l 732 0 l 821 0 l 821 82 l 501 486 "},"Y":{"ha":846,"x_min":0,"x_max":0,"o":"m 776 893 l 467 429 l 467 0 l 379 0 l 379 429 l 69 893 l 69 972 l 158 972 l 158 919 l 424 522 l 688 919 l 688 972 l 776 972 "},"y":{"ha":846,"x_min":0,"x_max":0,"o":"m 776 972 l 688 972 l 688 919 l 424 522 l 158 919 l 158 972 l 69 972 l 69 893 l 379 429 l 379 0 l 467 0 l 467 429 l 776 893 "},"Ý":{"ha":846,"x_min":0,"x_max":0,"o":"m 776 893 l 467 429 l 467 0 l 379 0 l 379 429 l 69 893 l 69 972 l 158 972 l 158 919 l 424 522 l 688 919 l 688 972 l 776 972 "},"ý":{"ha":846,"x_min":0,"x_max":0,"o":"m 776 972 l 688 972 l 688 919 l 424 522 l 158 919 l 158 972 l 69 972 l 69 893 l 379 429 l 379 0 l 467 0 l 467 429 l 776 893 "},"ÿ":{"ha":846,"x_min":0,"x_max":0,"o":"m 776 893 l 467 429 l 467 0 l 379 0 l 379 429 l 69 893 l 69 972 l 158 972 l 158 919 l 424 522 l 688 919 l 688 972 l 776 972 "},"Ÿ":{"ha":846,"x_min":0,"x_max":0,"o":"m 776 972 l 688 972 l 688 919 l 424 522 l 158 919 l 158 972 l 69 972 l 69 893 l 379 429 l 379 0 l 467 0 l 467 429 l 776 893 "},"Z":{"ha":890,"x_min":0,"x_max":0,"o":"m 188 89 l 821 89 l 821 0 l 69 0 l 69 82 l 703 883 l 69 883 l 69 972 l 821 972 l 821 890 "},"z":{"ha":890,"x_min":0,"x_max":0,"o":"m 821 890 l 821 972 l 69 972 l 69 883 l 703 883 l 69 82 l 69 0 l 821 0 l 821 89 l 188 89 "}," ":{"ha":431,"x_min":0,"x_max":0,"o":""},"­":{"ha":0,"x_min":0,"x_max":0,"o":""},"⁰":{"ha":1607,"x_min":0,"x_max":0,"o":"m 843 238 b 999 393 928 238 999 308 l 999 629 b 843 785 999 714 928 785 l 765 785 b 611 629 681 785 611 714 l 611 393 b 765 238 611 308 681 238 l 843 238 m 69 489 b 804 -244 69 85 399 -244 b 1538 489 1208 -244 1538 85 b 804 1224 1538 894 1208 1224 b 69 489 399 1224 69 894 m 121 489 b 804 1172 121 868 426 1172 b 1486 489 1185 1172 1486 868 b 804 -193 1486 111 1185 -193 b 121 489 426 -193 121 111 m 525 629 b 765 869 525 763 632 869 l 843 869 b 1083 629 976 869 1083 763 l 1083 393 b 843 153 1083 261 976 153 l 765 153 b 525 393 632 153 525 261 "},"¹":{"ha":1607,"x_min":0,"x_max":0,"o":"m 804 1172 b 1486 489 1185 1172 1486 868 b 804 -193 1486 111 1185 -193 b 121 489 426 -193 121 111 b 804 1172 121 868 426 1172 m 69 489 b 804 -244 69 85 399 -244 b 1538 489 1208 -244 1538 85 b 804 1224 1538 894 1208 1224 b 69 489 399 1224 69 894 m 760 869 l 844 869 l 844 153 l 760 153 "},"²":{"ha":1607,"x_min":0,"x_max":0,"o":"m 1100 238 l 1100 153 l 511 153 l 511 250 l 517 254 l 900 494 b 1015 639 990 547 1015 578 b 865 785 1015 718 949 785 l 742 785 b 592 639 658 785 592 719 l 592 594 l 506 594 l 506 639 b 742 869 506 768 611 869 l 865 869 b 1100 639 994 869 1100 765 b 944 422 1100 531 1046 479 l 651 238 m 69 489 b 804 -244 69 85 399 -244 b 1538 489 1208 -244 1538 85 b 804 1224 1538 894 1208 1224 b 69 489 399 1224 69 894 m 121 489 b 804 1172 121 868 426 1172 b 1486 489 1185 1172 1486 868 b 804 -193 1486 111 1185 -193 b 121 489 426 -193 121 111 "},"³":{"ha":1607,"x_min":0,"x_max":0,"o":"m 803 1174 b 1486 490 1182 1174 1486 868 b 803 -194 1486 111 1182 -194 b 119 490 425 -194 119 111 b 803 1174 119 868 425 1174 m 69 490 b 803 -244 69 85 399 -244 b 1538 490 1208 -244 1538 85 b 803 1224 1538 894 1208 1224 b 69 490 399 1224 69 894 m 513 390 l 597 390 l 597 347 b 713 235 597 285 649 235 l 899 235 b 1013 347 961 235 1013 285 b 899 463 1013 411 961 463 l 669 463 l 669 546 l 899 546 b 1013 660 961 546 1013 597 b 899 772 1013 722 961 772 l 713 772 b 597 660 649 772 597 722 l 597 618 l 513 618 l 513 660 b 713 857 513 769 603 857 l 899 857 b 1096 660 1007 857 1096 769 b 1021 504 1096 599 1068 542 b 1096 347 1068 467 1096 408 b 899 150 1096 239 1007 150 l 713 150 b 513 347 603 150 513 239 "},"⁴":{"ha":1607,"x_min":0,"x_max":0,"o":"m 892 754 l 567 443 l 892 443 m 69 489 b 804 -244 69 85 399 -244 b 1538 489 1208 -244 1538 85 b 804 1224 1538 894 1208 1224 b 69 489 399 1224 69 894 m 121 489 b 804 1172 121 868 426 1172 b 1486 489 1185 1172 1486 868 b 804 -193 1486 111 1185 -193 b 121 489 426 -193 121 111 m 450 449 l 454 451 l 886 869 l 979 869 l 979 443 l 1081 443 l 1081 357 l 979 357 l 979 153 l 892 153 l 892 357 l 450 357 "},"⁵":{"ha":1607,"x_min":0,"x_max":0,"o":"m 936 551 b 1138 351 1047 551 1138 463 b 936 151 1138 242 1047 151 l 547 151 l 547 236 l 936 236 b 1053 351 1001 236 1053 288 b 936 467 1053 415 1001 467 l 747 467 b 633 351 685 467 633 415 l 633 310 l 547 310 l 547 867 l 1106 867 l 1106 782 l 633 782 l 633 514 b 747 551 667 539 707 551 l 936 551 m 69 489 b 804 -244 69 85 399 -244 b 1538 489 1208 -244 1538 85 b 804 1224 1538 894 1208 1224 b 69 489 399 1224 69 894 m 121 489 b 804 1172 121 868 426 1172 b 1486 489 1185 1172 1486 868 b 804 -193 1486 111 1185 -193 b 121 489 426 -193 121 111 "},"⁶":{"ha":1607,"x_min":0,"x_max":0,"o":"m 897 238 b 1013 353 961 238 1013 289 b 897 468 1013 417 961 468 l 708 468 b 594 353 646 468 594 417 b 708 238 594 289 646 238 l 897 238 m 69 489 b 804 -244 69 85 399 -244 b 1538 489 1208 -244 1538 85 b 804 1224 1538 894 1208 1224 b 69 489 399 1224 69 894 m 121 489 b 804 1172 121 868 426 1172 b 1486 489 1185 1172 1486 868 b 804 -193 1486 111 1185 -193 b 121 489 426 -193 121 111 m 513 669 b 708 868 513 778 597 868 l 897 868 b 1099 669 1007 868 1099 778 l 1099 626 l 1013 626 l 1013 669 b 897 783 1013 732 961 783 l 708 783 b 594 669 646 783 594 732 l 594 515 b 708 553 628 540 668 553 l 897 553 b 1099 353 1007 553 1099 464 b 897 153 1099 243 1007 153 l 708 153 b 518 293 619 153 544 210 b 513 329 514 306 513 317 "},"⁷":{"ha":1607,"x_min":0,"x_max":0,"o":"m 1142 797 l 700 197 l 700 153 l 615 153 l 615 226 l 1025 785 l 550 785 l 550 869 l 1142 869 m 69 489 b 804 -244 69 85 399 -244 b 1538 489 1208 -244 1538 85 b 804 1224 1538 894 1208 1224 b 69 489 399 1224 69 894 m 121 489 b 804 1172 121 868 426 1172 b 1486 489 1185 1172 1486 868 b 804 -193 1486 111 1185 -193 b 121 489 426 -193 121 111 "},"⁸":{"ha":1607,"x_min":0,"x_max":0,"o":"m 708 782 b 592 668 643 782 592 731 b 708 551 592 603 643 551 l 897 551 b 1013 668 961 551 1013 603 b 897 782 1013 731 961 782 l 708 782 m 69 490 b 803 -244 69 85 399 -244 b 1538 490 1208 -244 1538 85 b 803 1224 1538 894 1208 1224 b 69 490 399 1224 69 894 m 119 490 b 803 1174 119 871 422 1174 b 1486 490 1185 1174 1486 871 b 803 -194 1486 108 1185 -194 b 119 490 422 -194 119 108 m 507 351 b 585 508 507 413 536 472 b 507 668 536 547 507 606 b 708 867 507 776 597 867 l 897 867 b 1099 668 1007 867 1099 776 b 1021 508 1099 606 1068 547 b 1099 351 1068 472 1099 413 b 897 151 1099 242 1007 151 l 708 151 b 507 351 597 151 507 242 m 592 351 b 708 236 592 288 643 236 l 897 236 b 1013 351 961 236 1013 288 b 897 467 1013 415 961 467 l 708 467 b 592 351 643 467 592 415 "},"⁹":{"ha":1607,"x_min":0,"x_max":0,"o":"m 1031 668 b 915 782 1031 731 979 782 l 726 782 b 613 668 663 782 613 731 b 726 551 613 603 663 551 l 915 551 b 990 581 943 551 971 563 l 1000 590 b 1031 668 1021 611 1031 639 m 69 490 b 803 -244 69 85 399 -244 b 1538 490 1208 -244 1538 85 b 803 1224 1538 894 1208 1224 b 69 490 399 1224 69 894 m 119 490 b 803 1174 119 871 422 1174 b 1486 490 1185 1174 1486 871 b 803 -194 1486 108 1185 -194 b 119 490 422 -194 119 108 m 525 668 b 726 867 525 776 615 867 l 915 867 b 1117 668 1026 867 1117 776 b 1072 544 1117 624 1101 579 l 1074 544 l 1058 529 b 1051 519 1057 525 1056 524 l 706 189 l 706 151 l 621 151 l 621 228 l 871 467 l 726 467 b 525 668 615 467 525 557 "},",":{"ha":322,"x_min":0,"x_max":0,"o":"m 253 -29 l 132 -150 l 69 -90 l 164 6 l 164 100 l 253 100 "},":":{"ha":228,"x_min":0,"x_max":0,"o":"m 69 100 l 158 100 l 158 0 l 69 0 m 69 592 l 158 592 l 158 492 l 69 492 "},"!":{"ha":239,"x_min":0,"x_max":0,"o":"m 75 100 l 164 100 l 164 0 l 75 0 m 169 972 l 158 253 l 81 253 l 69 972 "},"?":{"ha":885,"x_min":0,"x_max":0,"o":"m 815 664 b 582 426 815 532 710 426 l 514 426 b 436 346 471 426 436 392 l 436 253 l 347 253 l 347 346 b 514 515 347 439 422 515 l 582 515 b 729 664 663 515 729 583 l 729 707 b 551 883 729 803 649 883 l 335 883 b 158 707 239 883 158 803 l 158 664 l 69 664 l 69 707 b 335 972 69 853 189 972 l 551 972 b 815 707 697 972 815 853 l 815 664 m 347 99 l 436 99 l 436 0 l 347 0 "},"•":{"ha":1229,"x_min":0,"x_max":0,"o":"m 951 486 b 508 924 951 726 749 924 b 69 486 265 924 69 726 b 508 46 69 243 265 46 b 951 486 749 46 951 243 "},"/":{"ha":692,"x_min":0,"x_max":0,"o":"m 622 893 l 156 54 l 156 0 l 69 0 l 69 79 l 535 917 l 535 972 l 622 972 "},"＊":{"ha":649,"x_min":0,"x_max":0,"o":"m 108 274 l 274 482 l 108 690 l 108 764 l 189 764 l 189 719 l 324 546 l 461 719 l 461 764 l 542 764 l 542 690 l 375 482 l 542 274 l 542 200 l 461 200 l 461 244 l 324 418 l 189 244 l 189 200 l 108 200 "},"–":{"ha":890,"x_min":0,"x_max":0,"o":"m 69 419 l 821 419 l 821 332 l 69 332 "},"—":{"ha":833,"x_min":0,"x_max":0,"o":"m 69 419 l 821 419 l 821 332 l 69 332 "},"〰":{"ha":3314,"x_min":0,"x_max":0,"o":"m 1976 724 l 1976 690 l 1861 543 l 1744 690 l 1744 724 l 1674 724 l 1674 667 l 1815 486 l 1678 311 l 1674 307 l 1674 249 l 1744 249 l 1744 282 l 1861 429 l 1976 282 l 1976 249 l 2049 249 l 2049 306 l 1907 486 l 2044 661 l 2049 665 l 2049 724 m 69 940 b 296 1167 69 1065 171 1167 l 3018 1167 b 3244 940 3143 1167 3244 1065 l 3244 32 b 3018 -194 3244 -93 3143 -194 l 296 -194 b 69 32 171 -194 69 -93 m 1338 249 l 1338 450 l 1569 450 l 1569 522 l 1338 522 l 1338 653 l 1610 653 l 1610 724 l 1265 724 l 1265 249 "},"(":{"ha":318,"x_min":0,"x_max":0,"o":"m 68 971 b 94 1032 68 994 78 1015 l 186 1124 l 247 1063 l 169 985 b 157 956 163 978 157 967 l 157 18 b 169 -11 157 7 163 -4 l 247 -89 l 186 -150 l 93 -57 b 68 4 76 -40 68 -19 l 68 971 "},")":{"ha":318,"x_min":0,"x_max":0,"o":"m 249 4 b 224 -57 249 -19 240 -40 l 131 -150 l 69 -89 l 147 -11 b 160 18 154 -4 160 7 l 160 956 b 147 985 160 967 154 978 l 69 1063 l 131 1124 l 222 1032 b 249 971 239 1015 249 994 l 249 4 "},"\"":{"ha":354,"x_min":0,"x_max":0,"o":"m 138 972 l 138 708 l 49 708 l 49 972 m 196 972 l 285 972 l 285 708 l 196 708 "},"'":{"ha":207,"x_min":0,"x_max":0,"o":"m 138 972 l 138 708 l 49 708 l 49 972 "},"➖":{"ha":1501,"x_min":0,"x_max":0,"o":"m 1244 1097 b 1361 981 1313 1097 1361 1049 l 1361 -7 b 1244 -124 1361 -75 1313 -124 l 257 -124 b 140 -7 189 -124 140 -75 l 140 981 b 257 1097 140 1049 189 1097 l 1244 1097 m 69 -7 b 257 -194 69 -110 154 -194 l 1244 -194 b 1432 -7 1347 -194 1432 -110 l 1432 981 b 1244 1167 1432 1083 1347 1167 l 257 1167 b 69 981 154 1167 69 1083 l 69 -7 m 968 450 l 968 524 l 533 524 l 533 450 "},"➕":{"ha":1501,"x_min":0,"x_max":0,"o":"m 1244 -194 b 1432 -7 1347 -194 1432 -110 l 1432 981 b 1244 1167 1432 1083 1347 1167 l 257 1167 b 69 981 154 1167 69 1083 l 69 -7 b 257 -194 69 -110 154 -194 l 1244 -194 m 140 981 b 257 1097 140 1049 189 1097 l 1244 1097 b 1361 981 1313 1097 1361 1049 l 1361 -7 b 1244 -124 1361 -75 1313 -124 l 257 -124 b 140 -7 189 -124 140 -75 m 711 447 l 711 253 l 790 253 l 790 447 l 985 447 l 985 526 l 790 526 l 790 721 l 711 721 l 711 526 l 517 526 l 517 447 "},"⚫":{"ha":1500,"x_min":0,"x_max":0,"o":"m 1261 -194 b 1431 -24 1356 -194 1431 -118 l 1431 996 b 1261 1167 1431 1090 1356 1167 l 240 1167 b 69 996 146 1167 69 1090 l 69 -24 b 240 -194 69 -118 146 -194 l 1261 -194 m 574 724 l 644 724 l 644 689 l 750 529 l 857 689 l 857 724 l 928 724 l 928 667 l 924 663 l 786 456 l 786 249 l 715 249 l 715 456 l 574 668 "},"✅":{"ha":3314,"x_min":0,"x_max":0,"o":"m 404 251 b 246 410 317 251 246 324 l 246 563 b 404 722 246 650 317 722 l 456 722 b 572 671 499 722 542 703 b 613 593 592 649 607 622 l 618 561 l 553 549 l 547 581 b 525 625 544 597 536 614 b 456 656 507 644 482 656 l 404 656 b 311 563 353 656 311 614 l 311 410 b 404 317 311 358 353 317 l 456 317 b 547 392 501 317 539 347 l 553 424 l 618 411 l 611 379 b 456 251 594 304 531 251 l 404 251 m 69 1167 l 3244 1167 l 3244 -194 l 69 -194 m 3174 -122 l 3174 1094 l 140 1094 l 140 -122 m 674 563 b 833 722 674 650 746 722 l 883 722 b 1043 563 971 722 1043 650 l 1043 410 b 883 251 1043 322 971 251 l 833 251 b 674 410 746 251 674 322 m 739 410 b 833 317 739 358 781 317 l 883 317 b 976 410 935 317 976 358 l 976 563 b 883 656 976 614 935 656 l 833 656 b 739 563 781 656 739 614 l 739 410 m 1094 722 l 1329 722 b 1464 588 1403 722 1464 661 b 1347 454 1464 519 1411 461 l 1454 315 l 1454 261 l 1388 261 l 1388 293 l 1263 453 l 1161 453 l 1161 251 l 1094 251 m 1329 519 b 1397 588 1368 519 1397 550 b 1329 656 1397 625 1368 656 l 1161 656 l 1161 519 m 1522 722 l 1758 722 b 1892 588 1832 722 1892 661 b 1775 454 1892 519 1840 461 l 1882 315 l 1882 261 l 1815 261 l 1815 293 l 1692 453 l 1589 453 l 1589 251 l 1522 251 m 1758 519 b 1826 588 1796 519 1826 550 b 1758 656 1826 625 1796 656 l 1589 656 l 1589 519 m 1940 721 l 2281 721 l 2281 656 l 2007 656 l 2007 519 l 2239 519 l 2239 453 l 2007 453 l 2007 317 l 2281 317 l 2281 251 l 1940 251 m 2314 563 b 2472 722 2314 650 2385 722 l 2524 722 b 2640 671 2567 722 2610 703 b 2681 593 2660 649 2675 622 l 2686 561 l 2621 549 l 2615 581 b 2593 625 2613 597 2604 614 b 2524 656 2575 644 2550 656 l 2472 656 b 2379 563 2421 656 2379 614 l 2379 410 b 2472 317 2379 358 2421 317 l 2524 317 b 2615 392 2569 317 2607 347 l 2621 424 l 2686 411 l 2681 379 b 2524 251 2668 304 2599 251 l 2472 251 b 2314 410 2385 251 2314 324 m 2708 722 l 3078 722 l 3078 656 l 2926 656 l 2926 251 l 2860 251 l 2860 656 l 2708 656 "},"❌":{"ha":3314,"x_min":0,"x_max":0,"o":"m 982 250 l 982 318 l 710 318 l 710 451 l 942 451 l 942 521 l 710 521 l 710 654 l 982 654 l 982 722 l 640 722 l 640 250 m 69 997 b 239 1167 69 1090 144 1167 l 3075 1167 b 3244 997 3168 1167 3244 1090 l 3244 -24 b 3075 -194 3244 -118 3168 -194 l 239 -194 b 69 -24 144 -194 69 -118 m 1138 250 l 1138 451 l 1239 451 l 1363 293 l 1363 250 l 1431 250 l 1431 315 l 1325 453 b 1442 588 1389 461 1442 519 b 1306 724 1442 661 1379 724 l 1069 724 l 1069 250 m 1138 654 l 1306 654 b 1372 588 1343 654 1372 625 b 1306 521 1372 550 1343 521 l 1138 521 m 1563 250 l 1563 288 l 1614 401 l 1801 401 l 1849 288 l 1849 250 l 1917 250 l 1917 300 l 1744 722 l 1678 722 l 1494 301 l 1494 250 m 1710 624 l 1774 471 l 1643 471 m 1965 385 b 2101 250 1965 311 2028 250 l 2201 250 b 2338 385 2275 250 2338 311 b 2331 422 2338 396 2335 410 b 2246 496 2317 457 2283 486 l 2072 543 b 2039 568 2056 547 2044 557 b 2035 588 2036 574 2035 581 b 2101 654 2035 625 2063 654 l 2203 654 b 2269 588 2240 654 2269 625 l 2269 553 l 2338 553 l 2338 588 b 2203 724 2338 661 2275 724 l 2101 724 b 1965 588 2028 724 1965 661 b 1975 540 1965 574 1968 556 b 2053 476 1989 508 2019 485 l 2228 429 b 2267 397 2247 424 2260 413 b 2268 385 2268 394 2268 390 b 2201 318 2268 347 2240 318 l 2101 318 b 2035 385 2063 318 2035 347 l 2035 419 l 1965 419 l 1965 385 m 2754 250 l 2754 318 l 2482 318 l 2482 451 l 2714 451 l 2714 521 l 2482 521 l 2482 654 l 2754 654 l 2754 724 l 2413 724 l 2413 250 "},"⏺":{"ha":3317,"x_min":0,"x_max":0,"o":"m 3018 1167 b 3247 942 3146 1167 3247 1065 l 3246 -194 l 69 -194 l 69 942 b 296 1167 69 1065 171 1167 l 3018 1167 m 444 246 l 444 451 l 547 451 l 674 289 l 674 246 l 743 246 l 743 314 l 635 453 b 753 589 700 461 753 519 b 615 726 753 664 690 726 l 375 726 l 375 246 m 444 657 l 615 657 b 683 589 653 657 683 626 b 615 521 683 551 653 521 l 444 521 m 1192 246 l 1192 315 l 914 315 l 914 451 l 1150 451 l 1150 521 l 914 521 l 914 657 l 1192 657 l 1192 726 l 844 726 l 844 246 m 1250 410 b 1414 246 1250 319 1324 246 l 1464 246 b 1625 376 1543 246 1610 301 l 1632 411 l 1563 424 l 1557 390 b 1464 315 1550 346 1510 315 l 1414 315 b 1319 410 1361 315 1319 357 l 1319 563 b 1414 657 1319 615 1361 657 l 1464 657 b 1533 628 1492 657 1517 647 b 1557 582 1546 614 1554 600 l 1563 549 l 1632 561 l 1625 596 b 1583 674 1619 624 1604 651 b 1464 726 1553 707 1510 726 l 1414 726 b 1250 563 1324 726 1250 653 l 1250 410 m 1703 410 b 1867 246 1703 319 1776 246 l 1917 246 b 2081 410 2007 246 2081 319 l 2081 563 b 1917 726 2081 653 2007 726 l 1867 726 b 1703 563 1776 726 1703 653 l 1703 410 m 1772 563 b 1867 657 1772 615 1814 657 l 1917 657 b 2011 563 1969 657 2011 615 l 2011 410 b 1917 315 2011 357 1969 315 l 1867 315 b 1772 410 1814 315 1772 357 m 2235 246 l 2235 451 l 2338 451 l 2464 289 l 2464 246 l 2533 246 l 2533 314 l 2425 453 b 2543 589 2490 461 2543 519 b 2406 726 2543 664 2481 726 l 2165 726 l 2165 246 m 2235 657 l 2406 657 b 2474 589 2443 657 2474 626 b 2406 521 2474 551 2443 521 l 2235 521 m 2835 246 b 2999 410 2925 246 2999 319 l 2999 563 b 2835 726 2999 653 2925 726 l 2621 726 l 2621 246 m 2690 657 l 2835 657 b 2929 563 2888 657 2929 615 l 2929 410 b 2835 315 2929 357 2888 315 l 2690 315 "},"⏱":{"ha":3314,"x_min":0,"x_max":0,"o":"m 878 249 l 878 653 l 1031 653 l 1031 724 l 656 724 l 656 653 l 807 653 l 807 249 m 69 997 b 239 1167 69 1090 144 1167 l 3075 1167 b 3244 997 3168 1167 3244 1090 l 3244 -24 b 3075 -194 3244 -118 3168 -194 l 239 -194 b 69 -24 144 -194 69 -118 m 1165 249 l 1165 724 l 1094 724 l 1094 249 m 1307 249 l 1307 597 l 1400 418 l 1406 410 l 1461 410 l 1560 597 l 1560 249 l 1631 249 l 1631 724 l 1546 724 l 1433 510 l 1326 715 l 1321 724 l 1236 724 l 1236 249 m 1774 249 l 1774 724 l 1703 724 l 1703 249 m 1917 249 l 1917 604 l 2107 257 l 2113 249 l 2200 249 l 2200 724 l 2128 724 l 2128 368 l 1938 715 l 1932 724 l 1844 724 l 1844 249 m 2268 410 b 2429 249 2268 322 2342 249 l 2496 249 b 2586 276 2526 249 2560 260 l 2586 249 l 2657 249 l 2657 522 l 2435 522 l 2435 450 l 2586 450 l 2586 410 b 2496 319 2586 360 2546 319 l 2429 319 b 2339 410 2378 319 2339 360 l 2339 563 b 2429 653 2339 614 2378 653 l 2496 653 b 2563 624 2521 653 2544 643 b 2583 579 2574 611 2581 597 l 2592 546 l 2663 560 l 2654 596 b 2614 672 2649 622 2633 650 b 2496 724 2583 706 2540 724 l 2429 724 b 2268 563 2342 724 2268 650 l 2268 410 "},"@":{"ha":933,"x_min":0,"x_max":0,"o":"m 864 896 l 663 896 l 663 75 l 864 75 l 864 0 l 69 0 l 69 75 l 261 75 l 261 896 l 69 896 l 69 972 l 864 972 m 569 78 l 569 899 l 349 899 l 349 78 "},"™":{"ha":432,"x_min":0,"x_max":0,"o":"m 199 944 l 117 944 l 117 726 l 89 726 l 89 944 l 7 944 l 7 972 l 199 972 m 222 972 l 258 972 l 324 849 l 388 972 l 425 972 l 425 726 l 397 726 l 397 932 l 336 813 l 313 813 l 250 932 l 250 726 l 222 726 "},"$":{"ha":890,"x_min":0,"x_max":0,"o":"m 732 663 l 732 707 b 556 883 732 804 653 883 l 490 883 l 490 518 l 643 476 b 807 335 719 456 781 403 b 821 265 815 311 821 288 b 556 0 821 119 701 0 l 490 0 l 490 -69 l 401 -69 l 401 0 l 335 0 b 69 265 189 0 69 119 l 69 310 l 158 310 l 158 265 b 335 89 158 168 238 89 l 401 89 l 401 450 l 239 494 b 89 617 171 514 115 558 b 69 707 76 646 69 676 b 335 972 69 853 189 972 l 401 972 l 401 1042 l 490 1042 l 490 972 l 556 972 b 821 707 701 972 821 853 l 821 663 m 158 707 b 169 653 158 690 163 671 b 263 581 185 619 219 592 l 401 543 l 401 883 l 335 883 b 158 707 238 883 158 804 m 556 89 b 732 265 653 89 732 168 b 725 303 732 276 729 289 b 619 392 708 344 669 378 l 490 426 l 490 89 "},"€":{"ha":1006,"x_min":0,"x_max":0,"o":"m 936 300 l 926 257 b 613 0 897 108 765 0 l 503 0 b 182 321 326 0 182 144 l 182 360 l 69 360 l 69 449 l 182 449 l 182 524 l 69 524 l 69 611 l 182 611 l 182 651 b 503 972 182 829 326 972 l 613 972 b 847 869 701 972 788 935 b 926 715 888 826 915 774 l 936 672 l 849 656 l 840 699 b 783 810 832 740 813 778 b 613 883 739 857 678 883 l 503 883 b 271 651 375 883 271 779 l 271 611 l 560 611 l 560 524 l 271 524 l 271 449 l 560 449 l 560 360 l 271 360 l 271 321 b 503 89 271 193 375 89 l 613 89 b 840 274 722 89 818 167 l 849 317 "},"%":{"ha":1113,"x_min":0,"x_max":0,"o":"m 1043 203 b 839 -1 1043 89 953 -1 b 635 203 728 -1 635 89 l 635 293 b 839 497 635 404 728 497 b 1043 293 953 497 1043 404 l 1043 203 m 69 768 b 274 972 69 879 163 972 b 478 768 388 972 478 879 l 478 678 b 274 474 478 564 388 474 b 69 678 163 474 69 564 m 138 686 b 274 549 138 611 200 549 b 408 686 346 549 408 611 l 408 761 b 274 897 408 835 346 897 b 138 761 200 897 138 835 l 138 686 m 292 79 l 757 917 l 757 972 l 844 972 l 844 893 l 378 54 l 378 0 l 292 0 m 703 211 b 839 74 703 136 765 74 b 974 211 911 74 974 136 l 974 286 b 839 422 974 360 911 422 b 703 286 765 422 703 360 l 703 211 "},"⬆":{"ha":3314,"x_min":0,"x_max":0,"o":"m 1017 250 b 1153 385 1090 250 1153 311 b 1146 422 1153 396 1150 410 b 1061 496 1132 457 1099 486 l 886 543 b 854 567 869 547 858 557 b 849 588 851 575 849 582 b 915 654 849 625 878 654 l 1017 654 b 1083 588 1056 654 1083 625 l 1083 553 l 1153 553 l 1153 588 b 1017 722 1153 661 1090 722 l 915 722 b 781 588 842 722 781 661 b 790 540 781 574 783 556 b 868 476 806 510 833 486 l 1042 429 b 1081 399 1063 424 1075 413 b 1083 385 1082 393 1083 389 b 1017 318 1083 347 1054 318 l 915 318 b 849 385 878 318 849 347 l 849 419 l 781 419 l 781 385 b 915 250 781 311 842 250 l 1017 250 m 69 997 b 239 1167 69 1090 144 1167 l 3075 1167 b 3244 997 3168 1167 3244 1090 l 3244 -24 b 3075 -194 3244 -118 3168 -194 l 239 -194 b 69 -24 144 -194 69 -118 m 1293 250 l 1293 451 l 1497 451 l 1497 250 l 1565 250 l 1565 722 l 1497 722 l 1497 521 l 1293 521 l 1293 722 l 1224 722 l 1224 250 m 1706 250 l 1706 722 l 1636 722 l 1636 250 m 1846 250 l 1846 451 l 2078 451 l 2078 521 l 1846 521 l 1846 654 l 2118 654 l 2118 722 l 1776 722 l 1776 250 m 2328 654 l 2328 250 l 2396 250 l 2396 654 l 2547 654 l 2547 722 l 2175 722 l 2175 654 "},"▶":{"ha":3317,"x_min":0,"x_max":0,"o":"m 3018 1167 b 3247 942 3146 1167 3247 1065 l 3246 -194 l 69 -194 l 69 942 b 296 1167 69 1065 171 1167 l 3018 1167 m 933 246 l 933 449 l 1100 449 b 1239 589 1176 449 1239 513 b 1100 726 1239 664 1176 726 l 860 726 l 860 246 m 933 651 l 1100 651 b 1164 589 1138 651 1164 625 b 1100 524 1164 550 1138 524 l 933 524 m 1628 246 l 1628 321 l 1375 321 l 1375 726 l 1300 726 l 1300 246 m 1778 246 l 1778 286 l 1826 399 l 2013 399 l 2058 288 l 2058 246 l 2133 246 l 2133 299 l 1961 715 l 1957 726 l 1888 726 l 1703 300 l 1703 246 m 1922 618 l 1982 472 l 1858 472 m 2251 454 l 2251 246 l 2325 246 l 2325 454 l 2464 664 l 2467 671 l 2467 726 l 2393 726 l 2393 690 l 2289 535 l 2183 690 l 2183 726 l 2108 726 l 2108 668 "},"⌨":{"ha":1500,"x_min":0,"x_max":0,"o":"m 515 854 b 551 890 535 854 551 871 l 551 1103 b 515 1138 551 1122 535 1138 l 303 1138 b 268 1103 283 1138 268 1122 l 268 890 b 303 854 268 871 283 854 l 515 854 m 268 -131 b 303 -167 268 -150 283 -167 l 515 -167 b 551 -131 535 -167 551 -150 l 551 82 b 515 117 551 101 535 117 l 303 117 b 268 82 283 117 268 101 l 268 -131 m 268 210 b 303 174 268 190 283 174 l 515 174 b 551 210 535 174 551 190 l 551 422 b 515 457 551 442 535 457 l 303 457 b 268 422 283 457 268 442 l 268 210 m 268 550 b 303 514 268 531 283 514 l 515 514 b 551 550 535 514 551 531 l 551 763 b 515 797 551 782 535 797 l 303 797 b 268 763 283 797 268 782 l 268 550 m 608 -131 b 643 -167 608 -150 624 -167 l 856 -167 b 892 -131 875 -167 892 -150 l 892 82 b 856 117 892 101 875 117 l 643 117 b 608 82 624 117 608 101 l 608 -131 m 608 210 b 643 174 608 190 624 174 l 856 174 b 892 210 875 174 892 190 l 892 422 b 856 457 892 442 875 457 l 643 457 b 608 422 624 457 608 442 l 608 210 m 608 550 b 643 514 608 531 624 514 l 856 514 b 892 550 875 514 892 531 l 892 763 b 856 797 892 782 875 797 l 643 797 b 608 763 624 797 608 782 l 608 550 m 608 890 b 643 854 608 871 624 854 l 856 854 b 892 890 875 854 892 871 l 892 1103 b 856 1138 892 1122 875 1138 l 643 1138 b 608 1103 624 1138 608 1122 l 608 890 m 949 -131 b 983 -167 949 -150 964 -167 l 1196 -167 b 1232 -131 1215 -167 1232 -150 l 1232 82 b 1196 117 1232 101 1215 117 l 983 117 b 949 82 964 117 949 101 l 949 -131 m 949 210 b 983 174 949 190 964 174 l 1196 174 b 1232 210 1215 174 1232 190 l 1232 422 b 1196 457 1232 442 1215 457 l 983 457 b 949 422 964 457 949 442 l 949 210 m 949 550 b 983 514 949 531 964 514 l 1196 514 b 1232 550 1215 514 1232 531 l 1232 763 b 1196 797 1232 782 1215 797 l 983 797 b 949 763 964 797 949 782 l 949 550 m 949 890 b 983 854 949 871 964 854 l 1196 854 b 1232 890 1215 854 1232 871 l 1232 1103 b 1196 1138 1232 1122 1215 1138 l 983 1138 b 949 1103 964 1138 949 1122 l 949 890 "}}}
